<svg width="960" height="720" viewBox="0 0 960 720" fill="none" xmlns="http://www.w3.org/2000/svg">
  <defs>
    <linearGradient id="client-bg" x1="0" y1="0" x2="960" y2="720" gradientUnits="userSpaceOnUse">
      <stop stop-color="#FCF7F3"/>
      <stop offset="1" stop-color="#F5ECE7"/>
    </linearGradient>
    <filter id="client-shadow" x="138" y="34" width="790" height="648" filterUnits="userSpaceOnUse" color-interpolation-filters="sRGB">
      <feFlood flood-opacity="0" result="BackgroundImageFix"/>
      <feColorMatrix in="SourceAlpha" type="matrix" values="0 0 0 0 0 0 0 0 0 0 0 0 0 0 0 0 0 0 127 0" result="hardAlpha"/>
      <feOffset dy="18"/>
      <feGaussianBlur stdDeviation="18"/>
      <feColorMatrix type="matrix" values="0 0 0 0 0.42 0 0 0 0 0.28 0 0 0 0 0.25 0 0 0 0.08 0"/>
      <feBlend mode="normal" in2="BackgroundImageFix" result="effect1_dropShadow_1_1"/>
      <feBlend mode="normal" in="SourceGraphic" in2="effect1_dropShadow_1_1" result="shape"/>
    </filter>
  </defs>

  <rect width="960" height="720" rx="40" fill="url(#client-bg)"/>

  <rect x="28" y="28" width="188" height="664" rx="30" fill="#FFFDFB"/>
  <rect x="52" y="52" width="52" height="52" rx="18" fill="#FFF2EF" stroke="#F1DDD6"/>
  <path d="M67 85C73 79 77.5 72 81.5 63.5L93 75.5C84.5 79.5 77.5 84 71.5 90L67 85Z" fill="#B42323"/>
  <text x="116" y="60" fill="#7B6B67" font-family="Arial, sans-serif" font-size="11" letter-spacing="1.8">PROFESSIONEEL</text>
  <text x="116" y="77" fill="#7B6B67" font-family="Arial, sans-serif" font-size="11" letter-spacing="1.8">SALONBEHEER</text>
  <text x="52" y="150" fill="#2F2321" font-family="Arial, sans-serif" font-size="18" font-weight="700">Dashboard</text>
  <text x="52" y="194" fill="#2F2321" font-family="Arial, sans-serif" font-size="18" font-weight="700">Klanten</text>
  <rect x="42" y="214" width="160" height="46" rx="18" fill="#FBEDEC"/>
  <text x="56" y="244" fill="#9E2424" font-family="Arial, sans-serif" font-size="18" font-weight="700">Nieuwe klant</text>
  <text x="52" y="304" fill="#6D5C58" font-family="Arial, sans-serif" font-size="18">Agenda</text>
  <text x="52" y="348" fill="#6D5C58" font-family="Arial, sans-serif" font-size="18">Pakketten</text>
  <text x="52" y="392" fill="#6D5C58" font-family="Arial, sans-serif" font-size="18">Team</text>

  <g filter="url(#client-shadow)">
    <rect x="242" y="52" width="650" height="596" rx="34" fill="#FFFCFA"/>
  </g>
  <text x="284" y="96" fill="#B26F66" font-family="Arial, sans-serif" font-size="12" font-weight="700" letter-spacing="1.5">KLANTDOSSIER</text>
  <text x="284" y="138" fill="#2F2321" font-family="Arial, sans-serif" font-size="38" font-weight="700">Eva Jansen</text>
  <text x="284" y="172" fill="#6F5D59" font-family="Arial, sans-serif" font-size="20">Alles over kleurhistorie, notities en afspraken op één plek.</text>

  <rect x="284" y="208" width="240" height="172" rx="26" fill="#FFF4F0"/>
  <circle cx="352" cy="276" r="44" fill="#EBC7BF"/>
  <text x="417" y="248" fill="#2F2321" font-family="Arial, sans-serif" font-size="24" font-weight="700">Eva Jansen</text>
  <text x="417" y="278" fill="#7B6A66" font-family="Arial, sans-serif" font-size="16">06 12 34 56 78</text>
  <text x="417" y="304" fill="#7B6A66" font-family="Arial, sans-serif" font-size="16">eva@salondossier.nl</text>
  <rect x="308" y="328" width="104" height="28" rx="14" fill="#FFFFFF"/>
  <text x="328" y="347" fill="#9E2424" font-family="Arial, sans-serif" font-size="14" font-weight="700">Parfumvrij</text>
  <rect x="426" y="328" width="74" height="28" rx="14" fill="#FFFFFF"/>
  <text x="446" y="347" fill="#6B5652" font-family="Arial, sans-serif" font-size="14" font-weight="700">Toner</text>

  <rect x="548" y="208" width="312" height="172" rx="26" fill="#FFF7F4"/>
  <text x="576" y="244" fill="#2F2321" font-family="Arial, sans-serif" font-size="22" font-weight="700">Laatste behandeling</text>
  <text x="576" y="272" fill="#9E2424" font-family="Arial, sans-serif" font-size="16" font-weight="700">Uitgroei kleuren · Sanne</text>
  <text x="576" y="304" fill="#6F5D59" font-family="Arial, sans-serif" font-size="16">7.0 + 7.1, 3% oxidatie, 25 min</text>
  <text x="576" y="330" fill="#6F5D59" font-family="Arial, sans-serif" font-size="16">Lengtes opgefrist met koele toner.</text>
  <rect x="576" y="344" width="116" height="12" rx="6" fill="#B42323" fill-opacity=".16"/>
  <rect x="704" y="344" width="92" height="12" rx="6" fill="#DECAC5"/>

  <rect x="284" y="404" width="576" height="212" rx="28" fill="#FFF7F4"/>
  <text x="312" y="440" fill="#2F2321" font-family="Arial, sans-serif" font-size="22" font-weight="700">Behandelgeschiedenis</text>

  <rect x="312" y="464" width="520" height="52" rx="18" fill="#FFFFFF"/>
  <text x="336" y="487" fill="#9E2424" font-family="Arial, sans-serif" font-size="14" font-weight="700">01 maart</text>
  <text x="416" y="488" fill="#2F2321" font-family="Arial, sans-serif" font-size="18" font-weight="700">Uitgroei bijwerken</text>
  <text x="416" y="508" fill="#7B6A66" font-family="Arial, sans-serif" font-size="14">Toner koeler houden en glansmasker geadviseerd.</text>

  <rect x="312" y="528" width="520" height="52" rx="18" fill="#FFFFFF"/>
  <text x="336" y="551" fill="#9E2424" font-family="Arial, sans-serif" font-size="14" font-weight="700">10 februari</text>
  <text x="432" y="552" fill="#2F2321" font-family="Arial, sans-serif" font-size="18" font-weight="700">Volledige kleuring</text>
  <text x="432" y="572" fill="#7B6A66" font-family="Arial, sans-serif" font-size="14">Warme goudtoon, advies kleurshampoo meegegeven.</text>
</svg>
