<svg width="960" height="720" viewBox="0 0 960 720" fill="none" xmlns="http://www.w3.org/2000/svg">
  <defs>
    <linearGradient id="agenda-bg" x1="0" y1="0" x2="960" y2="720" gradientUnits="userSpaceOnUse">
      <stop stop-color="#FCF7F3"/>
      <stop offset="1" stop-color="#F6EEEA"/>
    </linearGradient>
  </defs>

  <rect width="960" height="720" rx="40" fill="url(#agenda-bg)"/>

  <rect x="28" y="28" width="188" height="664" rx="30" fill="#FFFDFB"/>
  <rect x="52" y="52" width="52" height="52" rx="18" fill="#FFF2EF" stroke="#F1DDD6"/>
  <path d="M67 85C73 79 77.5 72 81.5 63.5L93 75.5C84.5 79.5 77.5 84 71.5 90L67 85Z" fill="#B42323"/>
  <text x="116" y="60" fill="#7B6B67" font-family="Arial, sans-serif" font-size="11" letter-spacing="1.8">PROFESSIONEEL</text>
  <text x="116" y="77" fill="#7B6B67" font-family="Arial, sans-serif" font-size="11" letter-spacing="1.8">SALONBEHEER</text>
  <text x="52" y="150" fill="#6D5C58" font-family="Arial, sans-serif" font-size="18">Dashboard</text>
  <text x="52" y="194" fill="#6D5C58" font-family="Arial, sans-serif" font-size="18">Klanten</text>
  <rect x="42" y="282" width="160" height="46" rx="18" fill="#FBEDEC"/>
  <text x="56" y="312" fill="#9E2424" font-family="Arial, sans-serif" font-size="18" font-weight="700">Agenda</text>
  <text x="52" y="372" fill="#6D5C58" font-family="Arial, sans-serif" font-size="18">Pakketten</text>
  <text x="52" y="416" fill="#6D5C58" font-family="Arial, sans-serif" font-size="18">Instellingen</text>

  <rect x="242" y="52" width="650" height="596" rx="34" fill="#FFFCFA"/>
  <text x="284" y="96" fill="#B26F66" font-family="Arial, sans-serif" font-size="12" font-weight="700" letter-spacing="1.5">AGENDA</text>
  <text x="284" y="138" fill="#2F2321" font-family="Arial, sans-serif" font-size="38" font-weight="700">Dinsdag 24 maart</text>
  <text x="284" y="172" fill="#6F5D59" font-family="Arial, sans-serif" font-size="20">Lijst- en teamweergave met gewone afspraken en samengestelde bezoeken.</text>

  <rect x="284" y="204" width="578" height="70" rx="24" fill="#FFF4F0"/>
  <text x="314" y="235" fill="#2F2321" font-family="Arial, sans-serif" font-size="18" font-weight="700">Vandaag</text>
  <text x="314" y="258" fill="#6F5D59" font-family="Arial, sans-serif" font-size="14">3 afspraken · 1 samengesteld bezoek · 2 medewerkers</text>
  <rect x="702" y="222" width="128" height="34" rx="17" fill="#FFFFFF"/>
  <text x="724" y="244" fill="#9E2424" font-family="Arial, sans-serif" font-size="14" font-weight="700">Nieuwe afspraak</text>

  <rect x="284" y="300" width="132" height="308" rx="24" fill="#FFF7F4"/>
  <text x="316" y="338" fill="#7B6A66" font-family="Arial, sans-serif" font-size="14" font-weight="700">09:00</text>
  <text x="316" y="394" fill="#7B6A66" font-family="Arial, sans-serif" font-size="14" font-weight="700">10:00</text>
  <text x="316" y="450" fill="#7B6A66" font-family="Arial, sans-serif" font-size="14" font-weight="700">11:00</text>
  <text x="316" y="506" fill="#7B6A66" font-family="Arial, sans-serif" font-size="14" font-weight="700">12:00</text>
  <text x="316" y="562" fill="#7B6A66" font-family="Arial, sans-serif" font-size="14" font-weight="700">13:00</text>

  <rect x="438" y="300" width="424" height="308" rx="24" fill="#FFF7F4"/>
  <rect x="466" y="330" width="168" height="76" rx="22" fill="#FFFFFF"/>
  <rect x="484" y="350" width="54" height="10" rx="5" fill="#B42323" fill-opacity=".22"/>
  <text x="550" y="360" fill="#2F2321" font-family="Arial, sans-serif" font-size="18" font-weight="700">Mila Bakker</text>
  <text x="550" y="384" fill="#7B6A66" font-family="Arial, sans-serif" font-size="14">Gezichtsbehandeling · Lara</text>

  <rect x="648" y="330" width="182" height="132" rx="24" fill="#FCE9E8"/>
  <rect x="670" y="348" width="124" height="26" rx="13" fill="#FFFFFF"/>
  <text x="689" y="366" fill="#9E2424" font-family="Arial, sans-serif" font-size="13" font-weight="700">Samengesteld bezoek</text>
  <text x="670" y="400" fill="#2F2321" font-family="Arial, sans-serif" font-size="18" font-weight="700">Eva Jansen</text>
  <text x="670" y="424" fill="#7B6A66" font-family="Arial, sans-serif" font-size="14">10:00 Kleuren · Sanne</text>
  <text x="670" y="446" fill="#7B6A66" font-family="Arial, sans-serif" font-size="14">11:00 Epileren · Nina</text>

  <rect x="466" y="438" width="150" height="76" rx="22" fill="#FFFFFF"/>
  <rect x="484" y="458" width="54" height="10" rx="5" fill="#B42323" fill-opacity=".18"/>
  <text x="550" y="468" fill="#2F2321" font-family="Arial, sans-serif" font-size="18" font-weight="700">Noor Visser</text>
  <text x="550" y="492" fill="#7B6A66" font-family="Arial, sans-serif" font-size="14">Massage · Nina</text>

  <rect x="632" y="490" width="198" height="88" rx="24" fill="#FFFFFF"/>
  <text x="656" y="522" fill="#2F2321" font-family="Arial, sans-serif" font-size="18" font-weight="700">Teamweergave</text>
  <text x="656" y="546" fill="#7B6A66" font-family="Arial, sans-serif" font-size="14">Snel zien wie wanneer vrij is en welk onderdeel bij wie ligt.</text>
</svg>
