<svg width="960" height="720" viewBox="0 0 960 720" fill="none" xmlns="http://www.w3.org/2000/svg">
  <defs>
    <linearGradient id="packages-bg" x1="0" y1="0" x2="960" y2="720" gradientUnits="userSpaceOnUse">
      <stop stop-color="#FCF7F3"/>
      <stop offset="1" stop-color="#F4ECE7"/>
    </linearGradient>
  </defs>

  <rect width="960" height="720" rx="40" fill="url(#packages-bg)"/>

  <rect x="28" y="28" width="188" height="664" rx="30" fill="#FFFDFB"/>
  <rect x="52" y="52" width="52" height="52" rx="18" fill="#FFF2EF" stroke="#F1DDD6"/>
  <path d="M67 85C73 79 77.5 72 81.5 63.5L93 75.5C84.5 79.5 77.5 84 71.5 90L67 85Z" fill="#B42323"/>
  <text x="116" y="60" fill="#7B6B67" font-family="Arial, sans-serif" font-size="11" letter-spacing="1.8">PROFESSIONEEL</text>
  <text x="116" y="77" fill="#7B6B67" font-family="Arial, sans-serif" font-size="11" letter-spacing="1.8">SALONBEHEER</text>
  <text x="52" y="150" fill="#6D5C58" font-family="Arial, sans-serif" font-size="18">Dashboard</text>
  <text x="52" y="194" fill="#6D5C58" font-family="Arial, sans-serif" font-size="18">Klanten</text>
  <rect x="42" y="350" width="160" height="46" rx="18" fill="#FBEDEC"/>
  <text x="56" y="380" fill="#9E2424" font-family="Arial, sans-serif" font-size="18" font-weight="700">Pakketten</text>
  <text x="52" y="260" fill="#6D5C58" font-family="Arial, sans-serif" font-size="18">Agenda</text>
  <text x="52" y="424" fill="#6D5C58" font-family="Arial, sans-serif" font-size="18">Team</text>

  <rect x="242" y="52" width="650" height="596" rx="34" fill="#FFFCFA"/>
  <text x="284" y="96" fill="#B26F66" font-family="Arial, sans-serif" font-size="12" font-weight="700" letter-spacing="1.5">PAKKETTEN</text>
  <text x="284" y="138" fill="#2F2321" font-family="Arial, sans-serif" font-size="38" font-weight="700">Actieve kaarten en beurten</text>
  <text x="284" y="172" fill="#6F5D59" font-family="Arial, sans-serif" font-size="20">Overzicht aan de balie: wat is verkocht, wat blijft open en wat wordt automatisch afgeboekt.</text>

  <rect x="284" y="208" width="578" height="116" rx="28" fill="#FFF1EF"/>
  <text x="318" y="246" fill="#2F2321" font-family="Arial, sans-serif" font-size="22" font-weight="700">5x Massagekaart</text>
  <text x="318" y="276" fill="#7B6A66" font-family="Arial, sans-serif" font-size="16">Eva Jansen · actief sinds 12 februari</text>
  <rect x="680" y="234" width="148" height="62" rx="22" fill="#FFFFFF"/>
  <text x="708" y="259" fill="#7B6A66" font-family="Arial, sans-serif" font-size="14">Resterend</text>
  <text x="710" y="286" fill="#B42323" font-family="Arial, sans-serif" font-size="28" font-weight="700">2 beurten</text>

  <rect x="284" y="348" width="578" height="90" rx="24" fill="#FFF7F4"/>
  <text x="314" y="381" fill="#2F2321" font-family="Arial, sans-serif" font-size="20" font-weight="700">10x Brow shaping</text>
  <text x="314" y="406" fill="#7B6A66" font-family="Arial, sans-serif" font-size="15">Noor Visser · 6 bezoeken over</text>
  <rect x="706" y="370" width="120" height="44" rx="18" fill="#FFFFFF"/>
  <text x="736" y="398" fill="#9E2424" font-family="Arial, sans-serif" font-size="16" font-weight="700">Nog 6</text>

  <rect x="284" y="456" width="578" height="90" rx="24" fill="#FFF7F4"/>
  <text x="314" y="489" fill="#2F2321" font-family="Arial, sans-serif" font-size="20" font-weight="700">6x Toner pakket</text>
  <text x="314" y="514" fill="#7B6A66" font-family="Arial, sans-serif" font-size="15">Mila Bakker · laatste bezoek automatisch afgeboekt</text>
  <rect x="706" y="478" width="120" height="44" rx="18" fill="#FFFFFF"/>
  <text x="736" y="506" fill="#9E2424" font-family="Arial, sans-serif" font-size="16" font-weight="700">Nog 1</text>

  <rect x="284" y="566" width="578" height="50" rx="18" fill="#FFFFFF"/>
  <text x="314" y="598" fill="#7B6A66" font-family="Arial, sans-serif" font-size="15">Pakketten en digitale stempelkaarten blijven direct zichtbaar in het klantdossier en op de balie.</text>
</svg>
