<svg width="960" height="720" viewBox="0 0 960 720" fill="none" xmlns="http://www.w3.org/2000/svg">
  <rect width="960" height="720" rx="48" fill="#F9F3EF"/>
  <rect x="44" y="44" width="872" height="632" rx="34" fill="white" stroke="#E9D7D0" stroke-width="2"/>
  <rect x="44" y="44" width="872" height="76" rx="34" fill="#FFF7F4"/>
  <rect x="78" y="72" width="188" height="20" rx="10" fill="#6F605D" fill-opacity=".18"/>
  <rect x="78" y="154" width="804" height="112" rx="28" fill="#FFF2F2"/>
  <rect x="112" y="190" width="180" height="18" rx="9" fill="#3A2A28"/>
  <rect x="112" y="222" width="228" height="14" rx="7" fill="#9A8680"/>
  <rect x="680" y="182" width="170" height="54" rx="24" fill="#FFFFFF"/>
  <rect x="712" y="198" width="92" height="12" rx="6" fill="#9A8680"/>
  <rect x="712" y="216" width="70" height="16" rx="8" fill="#B42323"/>
  <rect x="78" y="294" width="804" height="96" rx="26" fill="#FFF7F4"/>
  <rect x="110" y="326" width="190" height="18" rx="9" fill="#3A2A28"/>
  <rect x="110" y="356" width="148" height="14" rx="7" fill="#9A8680"/>
  <rect x="650" y="314" width="200" height="56" rx="22" fill="#FFFFFF"/>
  <rect x="682" y="334" width="126" height="12" rx="6" fill="#B42323" fill-opacity=".25"/>
  <rect x="682" y="352" width="82" height="12" rx="6" fill="#9A8680"/>
  <rect x="78" y="418" width="804" height="96" rx="26" fill="#FFF7F4"/>
  <rect x="110" y="450" width="182" height="18" rx="9" fill="#3A2A28"/>
  <rect x="110" y="480" width="132" height="14" rx="7" fill="#9A8680"/>
  <rect x="650" y="438" width="200" height="56" rx="22" fill="#FFFFFF"/>
  <rect x="682" y="458" width="98" height="12" rx="6" fill="#B42323" fill-opacity=".2"/>
  <rect x="682" y="476" width="102" height="12" rx="6" fill="#9A8680"/>
  <rect x="78" y="542" width="804" height="96" rx="26" fill="#FFF7F4"/>
  <rect x="110" y="574" width="194" height="18" rx="9" fill="#3A2A28"/>
  <rect x="110" y="604" width="156" height="14" rx="7" fill="#9A8680"/>
  <rect x="650" y="562" width="200" height="56" rx="22" fill="#FFFFFF"/>
  <rect x="682" y="582" width="118" height="12" rx="6" fill="#B42323" fill-opacity=".18"/>
  <rect x="682" y="600" width="74" height="12" rx="6" fill="#9A8680"/>
</svg>
